<svg xmlns="http://www.w3.org/2000/svg" width="48" height="48" viewBox="0 0 48 48"><defs><style>.a{fill:#ff6262;}.b{fill:#ff4348;}.c{fill:#1e1e1e;}.d{fill:#fcd088;}.e{fill:#ddab62;}.f{fill:#366695;}.g{fill:#273b7a;}.h{fill:#ffedb5;}.i{fill:#e8cf89;}.j{fill:#fff;}.k{fill:#eaeaea;}.l{fill:#3a3a3a;}.m{fill:#333;}.n{fill:#d6d6d6;}.o{fill:#b5b4b4;}</style></defs><circle class="a" cx="24" cy="24" r="24"/><path class="b" d="M204.121,138.019l8.527,8.527a24.01,24.01,0,0,0,20.228-21.433L216.81,109.046Z" transform="translate(-184.985 -98.823)"/><g transform="translate(16.35 23.407)"><path class="c" d="M190.24,251.806l-.3,2.478s-10.586,2.99-14.384.027l-1.158-3.906,16.108-.727Z" transform="translate(-174.402 -249.678)"/><path class="c" d="M174.4,254.123l1.158,3.906c1.467,1.144,3.947,1.4,6.438,1.284V253.78Z" transform="translate(-174.402 -253.395)"/><path class="c" d="M255.426,250.061v5.533a40.647,40.647,0,0,0,7.946-1.311l.3-2.478.269-2.128Z" transform="translate(-247.83 -249.677)"/></g><rect class="d" width="8" height="9.778" transform="translate(20 27.396)"/><rect class="e" width="4.053" height="9.778" transform="translate(23.947 27.396)"/><path class="f" d="M137.433,344.716l-4.239-.848-.749-1.094a.52.52,0,0,0-.634-.184l-3.918,4.453L124,342.591a.52.52,0,0,0-.633.177l-.773,1.1-4.239.848a4.618,4.618,0,0,0-3.712,4.528v5.2a24.006,24.006,0,0,0,26.505,0v-5.2A4.618,4.618,0,0,0,137.433,344.716Z" transform="translate(-103.893 -310.434)"/><path class="g" d="M265.02,344.716l-4.239-.848-.749-1.094a.52.52,0,0,0-.634-.184l-3.918,4.453-.054-.062v11.452h.054a23.885,23.885,0,0,0,13.253-3.99v-5.2A4.618,4.618,0,0,0,265.02,344.716Z" transform="translate(-231.48 -310.434)"/><path class="h" d="M171.809,105.538a10.923,10.923,0,0,0,.065-1.173,8.661,8.661,0,1,0-17.293,0,10.957,10.957,0,0,0,.065,1.173c-.839.218-1.238,1.508-.891,2.889s1.314,2.336,2.158,2.124a.979.979,0,0,0,.218-.087c1.563,3.136,4.158,5.681,7.1,5.681s5.534-2.544,7.1-5.681a.975.975,0,0,0,.218.087c.844.212,1.81-.739,2.158-2.124S172.648,105.756,171.809,105.538Z" transform="translate(-139.228 -86.278)"/><path class="i" d="M264.061,105.538a10.934,10.934,0,0,0,.065-1.173A8.915,8.915,0,0,0,255.48,95.2l-.054,0v20.939l.054,0c2.938,0,5.534-2.544,7.1-5.681a.974.974,0,0,0,.218.087c.844.212,1.81-.739,2.158-2.124S264.9,105.756,264.061,105.538Z" transform="translate(-231.48 -86.278)"/><g transform="translate(18.155 31.692)"><circle class="j" cx="0.404" cy="0.404" r="0.404" transform="translate(5.441 6.64)"/><path class="j" d="M199.5,342.979l-3.775-4.786a.4.4,0,0,0-.612,0l-1.459,1.715,3.147,5.036a.684.684,0,0,0,1.146.022Z" transform="translate(-193.651 -338.052)"/></g><path class="k" d="M256,342.979l3.775-4.786a.4.4,0,0,1,.612,0l1.459,1.715-3.147,5.036a.684.684,0,0,1-1.146.022Z" transform="translate(-232 -306.36)"/><path class="l" d="M151.946,85.441a12.385,12.385,0,0,0,7.838,4.2c5.01.566.647,11.259.647,11.259a17.175,17.175,0,0,0,4.283-1.886s5.6-19.717-10.02-19.717c-16.242,0-8.646,21.01-8.646,21.01l3.394.727a15.667,15.667,0,0,1-1.7-7.515C147.987,89.563,150.492,85.6,151.946,85.441Z" transform="translate(-130.748 -71.866)"/><path class="m" d="M255.426,79.3v8.514a11.939,11.939,0,0,0,5.091,1.83c5.01.566.646,11.259.646,11.259a17.175,17.175,0,0,0,4.283-1.886S271.049,79.3,255.426,79.3Z" transform="translate(-231.48 -71.866)"/><path class="n" d="M169.158,358.936l-1.939.388V371.8a24.026,24.026,0,0,0,16.646,0V359.324l-1.939-.388v6.055H169.158Z" transform="translate(-151.542 -325.286)"/><path class="o" d="M261.864,358.936v6.055h-6.438v8.294h.054A23.931,23.931,0,0,0,263.8,371.8V359.324Z" transform="translate(-231.48 -325.286)"/></svg>