<svg xmlns="http://www.w3.org/2000/svg" width="18.295" height="42.819" viewBox="0 0 18.295 42.819"><defs><style>.a{fill:#fff;}</style></defs><path class="a" d="M39.683.009,35.3,0c-4.93,0-8.116,4.136-8.116,10.538V15.4H22.767a.8.8,0,0,0-.69.874v7.04a.8.8,0,0,0,.69.873h4.412V41.946a.8.8,0,0,0,.69.873h5.757a.8.8,0,0,0,.69-.873V24.183h5.159a.8.8,0,0,0,.69-.873l0-7.04a1,1,0,0,0-.2-.617.627.627,0,0,0-.488-.256H34.316V11.278c0-1.98.373-2.985,2.411-2.985h2.956a.8.8,0,0,0,.69-.873V.882A.8.8,0,0,0,39.683.009Z" transform="translate(-22.077)"/></svg>