<svg xmlns="http://www.w3.org/2000/svg" width="40.617" height="40.617" viewBox="0 0 40.617 40.617"><defs><style>.a{fill:#fff;}</style></defs><path class="a" d="M29.408,0h-18.2A11.222,11.222,0,0,0,0,11.209v18.2A11.221,11.221,0,0,0,11.209,40.617h18.2A11.222,11.222,0,0,0,40.617,29.408v-18.2A11.221,11.221,0,0,0,29.408,0Zm7.606,29.408a7.614,7.614,0,0,1-7.605,7.605h-18.2a7.613,7.613,0,0,1-7.6-7.605v-18.2a7.614,7.614,0,0,1,7.6-7.605h18.2a7.614,7.614,0,0,1,7.605,7.605v18.2Z"/><path class="a" d="M51.434,40.97A10.466,10.466,0,1,0,61.9,51.436,10.478,10.478,0,0,0,51.434,40.97Zm0,17.328A6.862,6.862,0,1,1,58.3,51.436,6.87,6.87,0,0,1,51.434,58.3Z" transform="translate(-31.125 -31.127)"/><path class="a" d="M121.564,28.251a2.641,2.641,0,1,0,1.869.774A2.653,2.653,0,0,0,121.564,28.251Z" transform="translate(-90.35 -21.464)"/></svg>