<svg xmlns="http://www.w3.org/2000/svg" width="47.933" height="35.878" viewBox="0 0 47.933 35.878"><defs><style>.a{fill:#fff;}</style></defs><g transform="translate(0 0)"><path class="a" d="M47.934,61.686a20.956,20.956,0,0,1-5.646,1.427A9.273,9.273,0,0,0,46.61,58.1a20.876,20.876,0,0,1-6.248,2.2,10.211,10.211,0,0,0-7.177-2.862c-5.43,0-9.833,4.057-9.833,9.059a8.406,8.406,0,0,0,.255,2.065A28.769,28.769,0,0,1,3.341,59.1a8.459,8.459,0,0,0-1.33,4.554,8.894,8.894,0,0,0,4.373,7.541A10.478,10.478,0,0,1,1.93,70.055v.113a9.292,9.292,0,0,0,7.886,8.885,10.759,10.759,0,0,1-2.591.317A10.214,10.214,0,0,1,5.374,79.2a9.772,9.772,0,0,0,9.183,6.293A20.82,20.82,0,0,1,2.346,89.367,22.66,22.66,0,0,1,0,89.243,29.537,29.537,0,0,0,15.073,93.32c18.088,0,27.975-13.806,27.975-25.779l-.033-1.173A18.868,18.868,0,0,0,47.934,61.686Z" transform="translate(-0.001 -57.441)"/></g></svg>