<svg xmlns="http://www.w3.org/2000/svg" width="184.522" height="214.954" viewBox="0 0 184.522 214.954"><defs><style>.a{fill:#f0e1d9;}.b{fill:#54778c;}.c{fill:#5a7f96;}.d{fill:#4c6d80;}.e{fill:#3a5261;}.f{fill:#3f5a6b;}.g{fill:#91a1a1;}.h{fill:#ff4348;}.i,.m{fill:#fff;}.i{opacity:0.1;}.j{fill:#39700b;}.k{fill:#74ba40;}.l{fill:#42ab46;}.n{fill:#f7941f;}.o{fill:#f79119;}.p{fill:#f5f5f5;}.q{fill:#db3300;}.r{fill:#f13a00;}.s{fill:#fa3c00;}.t{fill:#c1392b;}.u{fill:#ebba6e;}.v{fill:#f9af1a;}.w{fill:#f9b937;}.x{fill:#f9c45a;}.y{fill:#f9a600;}.z{fill:#fa9732;}.aa{fill:#fa9f44;}.ab{fill:#9eb334;}.ac{fill:#92a630;}.ad{fill:#6fb33d;}.ae{fill:#ea7273;}.af{fill:#ea6061;}.ag{fill:#ea8889;}.ah{fill:#d4c8c0;}.ai{fill:#f78500;}.aj{fill:#d9831b;}</style></defs><g transform="translate(-99.371 -2.532)"><path class="a" d="M279.151,15.5c-8.07,5.725-21.2-.053-24.224,12.321a3.043,3.043,0,0,0-.093,1.337c.919,4.3,7.706,6.249,10.7,8.892,10.753,9.483,6.733,27.964-6.21,33.1-15.932,6.33-34.844-1.657-52.228.6-3.491.453-7.071,1.408-9.5,3.6s-3.282,5.894-1.119,8.315a10.544,10.544,0,0,0,4.388,2.545c7.973,2.86,16.807,3.167,25.211,4.85,9.14,1.825,21,6.5,25.064,15.852,5.881,13.551-6.512,24.14-17.846,28.79-10.225,4.193-21.741,5.392-33.049,6.32-21.15,1.728-44.593,3.624-65.5-1.057-13.778-3.086-27.751-6.16-33.271-20.573-3.775-9.856-2.314-21.616,3.282-30.5,5.294-8.408,13.7-14.386,22.9-17.895,8.909-3.4,18.468-6.6,27.861-8.275,13.694-2.438,29.052-.76,41.151-8.808,19.508-12.973-10.9-19.365-20.941-20.724-14.44-1.959-29.27-.968-43.621-3.162a56.267,56.267,0,0,1-14.715-4.384c-7.671-3.6-13.986-9.416-12.023-18.05a13.64,13.64,0,0,1,3.251-6.072H282.3A8.638,8.638,0,0,1,283.761,5.9C284.445,9.488,282.393,13.192,279.151,15.5Z"/><path class="a" d="M122.315,68.333c-.007.175-.01.353-.007.537.13,11.182,26.218,17.341,33.026,10.615a9.335,9.335,0,0,0,2.421-7.843c-1.418-10.42-9.708-11.721-18.148-11.731C133.3,59.9,122.653,60,122.315,68.333Z" transform="translate(-8.888 -22.234)"/><g transform="translate(119.92 116.863)"><path class="b" d="M255.911,251.753a71.808,71.808,0,0,1-3.229,9.052c-3,7-8.177,16.229-15.883,20.809-23.407,13.907-64.327,9.327-80.907,0s-20.818-29.86-20.818-29.86Z" transform="translate(-133.755 -213.435)"/><path class="c" d="M257.217,251.753a71.81,71.81,0,0,1-3.229,9.052c-3.14,5.7-7.493,11.574-13.2,14.963-24.025,14.275-66.023,9.572-83.044,0-10.913-6.138-16.616-17.007-19.3-24.015Z" transform="translate(-135.061 -213.435)"/><path class="d" d="M256.395,220.951a17.219,17.219,0,0,1-1.321,6.561c-5.873,14.391-30.7,25.2-60.419,25.2s-54.541-10.805-60.414-25.2a17.22,17.22,0,0,1-1.321-6.561c0-17.539,27.64-31.757,61.735-31.757S256.395,203.412,256.395,220.951Z" transform="translate(-132.92 -189.194)"/><path class="e" d="M254.8,223.434a14.2,14.2,0,0,1-1.226,5.712c-5.45,12.529-28.488,21.937-56.07,21.937s-50.616-9.407-56.065-21.937a14.19,14.19,0,0,1-1.226-5.712c0-15.27,25.65-27.648,57.292-27.648S254.8,208.165,254.8,223.434Z" transform="translate(-135.747 -191.748)"/><path class="f" d="M254.353,236.373c-5.45,12.529-28.488,21.937-56.07,21.937s-50.616-9.407-56.065-21.937c5.449-12.53,28.483-21.937,56.065-21.937S248.9,223.843,254.353,236.373Z" transform="translate(-136.523 -198.975)"/><path class="g" d="M298.544,288.771l22.03,15.746,6.663-6.73L307.25,279.475S299.255,281.1,298.544,288.771Z" transform="translate(-197.099 -224.178)"/><path class="h" d="M339.816,304.017s29.86,21.376,22.71,28.9-33.1-17.947-33.1-17.947S330.654,305.6,339.816,304.017Z" transform="translate(-209.066 -233.688)"/><path class="i" d="M338.379,308.958l27.241,23.836s1.925-4.145-3.479-10.068-18.95-17.026-18.95-17.026S338.6,307.922,338.379,308.958Z" transform="translate(-212.535 -234.34)"/><path class="i" d="M305.143,284.566l16.669,13.95a8.107,8.107,0,0,1,3.318-2.956l-15.1-13.367S305.587,283.052,305.143,284.566Z" transform="translate(-199.656 -225.231)"/><path class="i" d="M167,282.194s4.886,2.776,7.107,3.221l.592,9.327s-4.886-1.629-7.107-3.257Z" transform="translate(-146.127 -225.231)"/><path class="i" d="M182.956,288.721l.555,9.369s13.436,4.51,21.208,4.289V292.052S192.643,291.391,182.956,288.721Z" transform="translate(-152.309 -227.761)"/></g><g transform="translate(130.011 23.678)"><path class="j" d="M154.823,156.671a5.883,5.883,0,0,0-2.239,1.218,14.463,14.463,0,0,1-3.187,1.606,2.945,2.945,0,0,0,1.742,1.174,4.875,4.875,0,0,0,1.958.1,3.243,3.243,0,0,0,.94-.225c.967-.431,2.808-2.512,1.75-3.541A1.142,1.142,0,0,0,154.823,156.671Z" transform="translate(-149.396 -83.403)"/><path class="j" d="M315.554,37.089a5.884,5.884,0,0,0-2.084,1.469,14.451,14.451,0,0,1-2.98,1.963,2.946,2.946,0,0,0,1.866.965,4.878,4.878,0,0,0,1.956-.128,3.23,3.23,0,0,0,.908-.333c.91-.54,2.5-2.819,1.329-3.719A1.142,1.142,0,0,0,315.554,37.089Z" transform="translate(-211.82 -37.056)"/><path class="k" d="M315.733,54.987a6.943,6.943,0,0,0-1.643,2.52,17.079,17.079,0,0,1-2.41,3.454,3.471,3.471,0,0,0,2.467.242,5.753,5.753,0,0,0,2.088-.994,3.785,3.785,0,0,0,.85-.761c.763-.99,1.508-4.182-.168-4.657A1.347,1.347,0,0,0,315.733,54.987Z" transform="translate(-212.281 -43.905)"/><path class="j" d="M167.462,162.516l-3.067,1.747a6.345,6.345,0,0,0-1.664,1.2c-.465.522-.979,1.506-.166,2.015s2.242-.283,2.927-.731a5.775,5.775,0,0,0,1.79-1.637A3.3,3.3,0,0,0,167.462,162.516Z" transform="translate(-154.333 -85.671)"/></g><g transform="translate(138.467 10.489)"><path class="k" d="M260.7,129.728a12.414,12.414,0,0,1-6.131-4.109,3.063,3.063,0,0,1-.809-1.736,7.943,7.943,0,0,0,2.4-1.691,7.306,7.306,0,0,0,6.323,2.541A10.4,10.4,0,0,1,260.7,129.728Z" transform="translate(-198.292 -56.857)"/><path class="k" d="M248.764,135.867a6.318,6.318,0,0,1-1.265-2.616,2.991,2.991,0,0,1-1.81.88,4.7,4.7,0,0,0,2.3,3.194A2.239,2.239,0,0,1,248.764,135.867Z" transform="translate(-195.165 -61.142)"/><path class="k" d="M327.861,18.139a6.325,6.325,0,0,1-1.265-2.616,2.991,2.991,0,0,1-1.81.88,4.7,4.7,0,0,0,2.3,3.194A2.238,2.238,0,0,1,327.861,18.139Z" transform="translate(-225.815 -15.523)"/><path class="k" d="M163.2,51.542a6.324,6.324,0,0,0,1-2.729,2.993,2.993,0,0,0,1.889.693,4.7,4.7,0,0,1-1.967,3.408A2.242,2.242,0,0,0,163.2,51.542Z" transform="translate(-163.201 -28.423)"/><path class="k" d="M338.895,183.2a6.318,6.318,0,0,0,1-2.729,3,3,0,0,0,1.889.694,4.693,4.693,0,0,1-1.967,3.407A2.242,2.242,0,0,0,338.895,183.2Z" transform="translate(-231.282 -79.44)"/><path class="k" d="M204.37,192.411l-1.721-3.217s-2.129,5.921-8.159,6.519l1.767,2.3A11.44,11.44,0,0,0,204.37,192.411Z" transform="translate(-175.325 -82.82)"/><path class="k" d="M239.66,90.391l-1.618-1.675s-.273,4.006-3.87,5.426l1.486,1.1A7.3,7.3,0,0,0,239.66,90.391Z" transform="translate(-190.702 -43.885)"/><path class="l" d="M216.131,217.9l1.17-2.566s-4.636,1.469-7.827-1.958l-.587,2.166A8.838,8.838,0,0,0,216.131,217.9Z" transform="translate(-180.904 -92.191)"/><path class="l" d="M287.569,28.094l1.171-2.566S284.1,27,280.912,23.57l-.587,2.166A8.839,8.839,0,0,0,287.569,28.094Z" transform="translate(-208.586 -18.641)"/><path class="l" d="M181.852,40.7l2.278-1.662s-4.761-.992-5.862-5.544l-1.574,1.6A8.837,8.837,0,0,0,181.852,40.7Z" transform="translate(-168.43 -22.487)"/><path class="l" d="M330.719,166.866l-2.278-1.662s4.761-.992,5.862-5.544l1.574,1.6A8.837,8.837,0,0,1,330.719,166.866Z" transform="translate(-227.231 -71.376)"/></g><g transform="translate(151.358 96.57)"><path class="m" d="M209.331,168.02c-.919-1.514-1.738-1.624-3.458-1.741l-5.761-.394c-2.952-.2-5.979-.532-8.961-.454a4.6,4.6,0,0,0-1.562-3.535,3.167,3.167,0,0,0-4.432.475,3.753,3.753,0,0,0-.084,4.035c.029.054.089.159.166.287a3.251,3.251,0,0,0-.829,3.347,2.274,2.274,0,0,0,3.184,1.556,5.584,5.584,0,0,0,2.516-2.035,82.007,82.007,0,0,0,9.69.894l5.317.363c1.835.125,2.874.292,4.106-1.226A1.516,1.516,0,0,0,209.331,168.02Z" transform="translate(-184.248 -158.058)"/><path class="n" d="M251.724,157.015c7.953-1.134,17.208-2.322,22.98,3.266,4.373,4.234,5.065,11.17,3.5,17.052a20.073,20.073,0,0,1-4.516,8.6c-11.069,11.83-29.85,1.578-40.38-5.36-6.195-4.081-12.632-8.169-19.909-9.616-1.349-.268-2.926-.592-3.518-1.835-.692-1.457.952-2.09,1.934-1.893-7.873-8.516,6.234-8,10.789-8.031A217.753,217.753,0,0,0,251.724,157.015Z" transform="translate(-194.021 -156.063)"/><path class="i" d="M257.693,167.227a11.931,11.931,0,0,0-4.853,1.845,4.367,4.367,0,0,0-1.785,4.572,6.478,6.478,0,0,0,1.855,2.5,65.312,65.312,0,0,0,10,8.482,21.908,21.908,0,0,0,12.36,3.829,12.824,12.824,0,0,0,3.644-.625,17.7,17.7,0,0,0,6.568-4.547,16.992,16.992,0,0,0,3.364-4.311c2.957-5.914-.915-13.121-7.156-14.641C274.527,162.589,264.711,165.74,257.693,167.227Z" transform="translate(-210.077 -159.069)"/><path class="o" d="M287.658,186.8c2.522-.551,5.323.35,5.316,3.57a3.481,3.481,0,0,1-2.412,3.038,6.44,6.44,0,0,1-5.026-.533c-1.038-.525-2.089-1.477-1.937-2.631a3.341,3.341,0,0,1,.758-1.49A5.65,5.65,0,0,1,287.658,186.8Z" transform="translate(-222.741 -167.915)"/><path class="o" d="M302,179.185a1.9,1.9,0,0,0-.453-1.348l-.355-.315a1.847,1.847,0,0,0-.779-.3,2.616,2.616,0,0,0-1.782.235,2,2,0,0,0-1.285,1.066,1.949,1.949,0,0,0-.107,1.577,2.064,2.064,0,0,0,1.245,1.275,2.6,2.6,0,0,0,1.825.012,2.393,2.393,0,0,0,.88-.472,2.178,2.178,0,0,0,.746-1.289A2.5,2.5,0,0,0,302,179.185Z" transform="translate(-227.984 -164.239)"/><path class="o" d="M304.937,186.806l.075.115a.814.814,0,0,0-.266-.282l0,0a1.082,1.082,0,0,0-.412-.212l-.01,0h.007l-.017-.006a1.328,1.328,0,1,0-.955,2.477,1.891,1.891,0,0,0,.846.062A1.32,1.32,0,0,0,304.937,186.806Z" transform="translate(-230.065 -167.786)"/><path class="p" d="M189.108,163.707a.527.527,0,0,0-.467-.628c-.1-.011-.2-.057-.3-.064a1.326,1.326,0,0,0-.49.085,1.521,1.521,0,0,0-.74.577.678.678,0,0,0-.122.3.931.931,0,0,0,.258,1.177,1.076,1.076,0,0,0,1.37-.2,1.83,1.83,0,0,0,.445-.608A1.356,1.356,0,0,0,189.108,163.707Z" transform="translate(-185.27 -158.756)"/><path class="p" d="M193.063,165.14a.8.8,0,0,0-.239-.484.521.521,0,0,0-.8.667.512.512,0,0,0,.547.455A.539.539,0,0,0,193.063,165.14Z" transform="translate(-187.221 -159.33)"/></g><g transform="translate(147.436 65.664)"><path class="q" d="M202.936,130.325c-18.846,8.89-25.091-13.18-25.091-13.18q1.033-.169,2.056-.367a73.848,73.848,0,0,0,24.991-9.766c.737-.456,1.462-.923,2.181-1.406C207.073,105.605,219.451,122.535,202.936,130.325Z" transform="translate(-177.845 -105.605)"/><path class="r" d="M210.556,121.355a10.66,10.66,0,0,1-3.769,6.352,15.043,15.043,0,0,1-21.9-2.234c-1.849-2.254-2.72-5.052-3.689-7.806.97-.184,1.934-.393,2.9-.617a73.9,73.9,0,0,0,20.68-8.295q.71-.415,1.415-.855a27.237,27.237,0,0,1,2.89,5.357C210.157,115.822,211,118.611,210.556,121.355Z" transform="translate(-179.146 -106.495)"/><path class="s" d="M203.855,127.994c-11.809,5.519-16.805-6.261-17.925-10.4a73.9,73.9,0,0,0,20.68-8.295C209.793,113.209,213.064,123.69,203.855,127.994Z" transform="translate(-180.978 -107.036)"/><path class="t" d="M202.636,120.01c1.986-1.637,3.257-3.976,5.052-5.821.391-.4.956-.809,1.465-.573a1.3,1.3,0,0,1,.516.537c1.747,2.862.728,6.818-1.659,9.174s-5.811,3.361-9.147,3.7a12.225,12.225,0,0,1-3.062,0,12.077,12.077,0,0,1-4.466-1.837,4.154,4.154,0,0,1-1.816-1.8c-1.247-3.093,3.964-1.011,5.249-.966A11.661,11.661,0,0,0,202.636,120.01Z" transform="translate(-182.295 -108.682)"/><path class="u" d="M197.156,129.653a1,1,0,0,0-.316-.592.754.754,0,0,0-.756-.135,1.174,1.174,0,0,0-.657.707,3.924,3.924,0,0,0-.253.758.983.983,0,0,0,.774,1.136,1,1,0,0,0,1.135-.774,3.4,3.4,0,0,0,.085-.63A1.791,1.791,0,0,0,197.156,129.653Z" transform="translate(-184.554 -114.624)"/><path class="u" d="M201.913,129.674a.768.768,0,0,0-.756-.483.785.785,0,0,0-.666.6,1.887,1.887,0,0,0-.041.75.816.816,0,0,0,1.626-.134A1.886,1.886,0,0,0,201.913,129.674Z" transform="translate(-186.597 -114.743)"/><path class="u" d="M207.275,129.023a.631.631,0,0,0-1.2.1,2.636,2.636,0,0,0,.129,1.256.606.606,0,0,0,1.153-.095A2.635,2.635,0,0,0,207.275,129.023Z" transform="translate(-188.774 -114.524)"/><path class="u" d="M211.956,126.919a.606.606,0,0,0-.674.794,2.43,2.43,0,0,0,.3.538l.029.047c.01.021.027.053.03.061a2.76,2.76,0,0,0,.181.361.721.721,0,0,0,1.3-.469A1.589,1.589,0,0,0,211.956,126.919Z" transform="translate(-190.788 -113.862)"/><path class="u" d="M217.244,124.546c-.176-.105-.388-.155-.571-.255a3.115,3.115,0,0,0-.542-.295.623.623,0,0,0-.669.1.6.6,0,0,0-.165.655,1.691,1.691,0,0,0,.719.738,2.026,2.026,0,0,0,.811.328.677.677,0,0,0,.418-1.274Z" transform="translate(-192.341 -112.711)"/><path class="u" d="M219.8,120.225a2.171,2.171,0,0,0-1.305-.132.6.6,0,0,0-.285.906,2.459,2.459,0,0,0,1.318.664.735.735,0,0,0,.855-.583A.754.754,0,0,0,219.8,120.225Z" transform="translate(-193.441 -111.197)"/><path class="m" d="M227.9,122.735c-.085-.578-1.057-.722-1.1-.058a29.877,29.877,0,0,1-.443,5.084,12.5,12.5,0,0,1-2.552,4.8.393.393,0,0,0,.523.573C227.569,131.123,228.412,126.232,227.9,122.735Z" transform="translate(-195.618 -112.05)"/><path class="m" d="M228.613,117.564a6.488,6.488,0,0,0-.549-1.374c-.246-.427-.9-.919-1.327-.393a1.19,1.19,0,0,0-.025,1.241c.134.36.266.716.369,1.087a.816.816,0,0,0,1.532-.561Z" transform="translate(-196.717 -109.466)"/></g><g transform="translate(163.279 37.763)"><path class="v" d="M211.42,76.465c14.121,3.585,15.46-12.4,15.46-12.4-.488.014-.973.023-1.46.023a51.649,51.649,0,0,1-18.455-3.366c-.567-.215-1.126-.439-1.684-.674C205.28,60.052,199.046,73.323,211.42,76.465Z" transform="translate(-203.71 -60.052)"/><path class="w" d="M206.793,70.969a7.455,7.455,0,0,0,3.435,3.856,10.518,10.518,0,0,0,14.728-4.457,17.344,17.344,0,0,0,1.49-5.85c-.69,0-1.379-.012-2.07-.037a51.664,51.664,0,0,1-15.3-2.931q-.544-.19-1.086-.4a19.006,19.006,0,0,0-1.268,4.062A10.565,10.565,0,0,0,206.793,70.969Z" transform="translate(-204.736 -60.479)"/><path class="x" d="M214.449,74.266c8.841,2.211,10.7-6.54,10.913-9.532a51.664,51.664,0,0,1-15.3-2.931C208.4,64.912,207.554,72.541,214.449,74.266Z" transform="translate(-205.721 -60.73)"/><path class="y" d="M214.99,68.518c-1.581-.858-2.767-2.293-4.244-3.32-.322-.224-.764-.428-1.082-.2a.9.9,0,0,0-.282.438c-.818,2.2.41,4.776,2.363,6.075a10.493,10.493,0,0,0,6.772,1.319,8.549,8.549,0,0,0,2.1-.409,8.439,8.439,0,0,0,2.821-1.857,2.9,2.9,0,0,0,1.006-1.477c.443-2.29-2.855-.165-3.731.037A8.148,8.148,0,0,1,214.99,68.518Z" transform="translate(-205.808 -61.93)"/><path class="m" d="M228.179,72.857a.7.7,0,0,1,.138-.448.528.528,0,0,1,.5-.194.824.824,0,0,1,.546.4,2.79,2.79,0,0,1,.275.487.687.687,0,0,1-.38.882.7.7,0,0,1-.882-.379,2.353,2.353,0,0,1-.143-.421A1.256,1.256,0,0,1,228.179,72.857Z" transform="translate(-213.191 -64.763)"/><path class="m" d="M225.1,73.476a.538.538,0,0,1,.454-.432.55.55,0,0,1,.538.323,1.328,1.328,0,0,1,.128.51.57.57,0,0,1-1.134.126A1.331,1.331,0,0,1,225.1,73.476Z" transform="translate(-211.984 -65.086)"/><path class="m" d="M221.45,73.73a.442.442,0,0,1,.84-.093,1.846,1.846,0,0,1,.079.88.423.423,0,0,1-.8.089A1.848,1.848,0,0,1,221.45,73.73Z" transform="translate(-210.581 -65.212)"/><path class="m" d="M217.757,72.91a.423.423,0,0,1,.568.455,1.7,1.7,0,0,1-.134.409l-.014.036c0,.016-.012.04-.012.045a1.992,1.992,0,0,1-.077.272.5.5,0,0,1-.955-.148A1.11,1.11,0,0,1,217.757,72.91Z" transform="translate(-208.911 -65.025)"/><path class="m" d="M213.582,71.985c.107-.1.246-.158.358-.252a2.193,2.193,0,0,1,.333-.274.436.436,0,0,1,.473-.019.42.42,0,0,1,.2.428,1.183,1.183,0,0,1-.4.6,1.417,1.417,0,0,1-.513.334.473.473,0,0,1-.456-.819Z" transform="translate(-207.463 -64.441)"/><path class="m" d="M211.26,69.37a1.516,1.516,0,0,1,.878-.265.421.421,0,0,1,.316.584,1.712,1.712,0,0,1-.816.631.513.513,0,0,1-.665-.285A.527.527,0,0,1,211.26,69.37Z" transform="translate(-206.512 -63.558)"/><path class="m" d="M205.186,72.415c-.018-.407.629-.636.748-.186a20.859,20.859,0,0,0,.984,3.43,8.745,8.745,0,0,0,2.392,2.955.275.275,0,0,1-.282.463C206.53,78.128,205.3,74.884,205.186,72.415Z" transform="translate(-204.282 -64.675)"/><path class="m" d="M205.048,68.715a4.541,4.541,0,0,1,.194-1.016c.112-.326.494-.75.858-.447a.834.834,0,0,1,.183.848c-.044.265-.088.527-.108.8a.57.57,0,1,1-1.126-.181Z" transform="translate(-204.227 -62.802)"/></g><g transform="translate(194.965 46.232)"><path class="p" d="M301.016,107.4c-1.928,4.65-6.84,8.883-11.61,7.275-2.519-.844-4.264-3.065-6.143-4.943a29,29,0,0,0-8.124-5.707c-4.228-1.99-8.923-2.949-12.961-5.3s-7.471-6.774-6.6-11.366a12.773,12.773,0,0,1,1.186-3.451,15.684,15.684,0,0,1,5.881-6.1c8.128-5.027,20.982-5.2,27.484-.7A29.508,29.508,0,0,1,300.95,90.418a24.185,24.185,0,0,1,1.643,8.053A21.619,21.619,0,0,1,301.016,107.4Z" transform="translate(-255.443 -73.878)"/><path class="m" d="M302.967,98.471a20.967,20.967,0,0,1-1.559,7.346c-1.9,4.6-6.751,8.772-11.464,7.186-2.487-.835-4.21-3.029-6.067-4.881a28.6,28.6,0,0,0-8.017-5.636c-4.175-1.964-8.812-2.909-12.8-5.233s-7.378-6.689-6.516-11.223a12.212,12.212,0,0,1,.6-2.119,15.684,15.684,0,0,1,5.881-6.1c8.128-5.027,20.982-5.2,27.484-.7a29.507,29.507,0,0,1,10.819,13.307A24.184,24.184,0,0,1,302.967,98.471Z" transform="translate(-255.818 -73.878)"/><path class="z" d="M296.232,92.055a4.874,4.874,0,0,1-1.084,2.065c-1.555,1.648-4.193,1.452-6.418,1.03-3.7-.7-12.348-2.8-13.942-6.715a2.727,2.727,0,0,1-.129-1.684,6.8,6.8,0,0,1,.551-1.514c3.056-6.014,14.5-5.415,18.619-1.382a9.066,9.066,0,0,1,2.381,4.091A7.909,7.909,0,0,1,296.232,92.055Z" transform="translate(-262.86 -76.55)"/><path class="aa" d="M296.607,87.947a6.348,6.348,0,0,1-3.184,3.531,12.335,12.335,0,0,1-7.3.653,31.92,31.92,0,0,1-4.668-1.084,10.212,10.212,0,0,1-4.433-2.421,6.069,6.069,0,0,1-1.417-3.389c3.056-6.014,14.5-5.415,18.619-1.382A9.066,9.066,0,0,1,296.607,87.947Z" transform="translate(-263.257 -76.55)"/><path class="i" d="M279.824,85.165a2.528,2.528,0,0,0-.834,1.978c.077,1.074,1.322,1.617,2.381,1.815a9.747,9.747,0,0,0,4.44-.072,5.567,5.567,0,0,0,3.458-2.652c1.378-2.655-2.735-3.489-4.521-3.242A9.684,9.684,0,0,0,279.824,85.165Z" transform="translate(-264.565 -77.394)"/><path class="p" d="M313.012,126.74a1.589,1.589,0,0,0-.41-.88,1.45,1.45,0,0,0-1.012-.461,1.137,1.137,0,0,0-.953.478,1.17,1.17,0,0,0-.251.782,1.494,1.494,0,0,0-.053.241,1.927,1.927,0,0,0,.032.561,1.26,1.26,0,0,0,.586.763,1.419,1.419,0,0,0,.984.129A1.454,1.454,0,0,0,313.012,126.74Z" transform="translate(-276.709 -93.841)"/><path class="p" d="M317.9,119.78l-.1-.095a.987.987,0,0,0-1.4,1.4l.1.1a.992.992,0,1,0,1.4-1.4Z" transform="translate(-278.955 -91.518)"/><path class="p" d="M320.953,124.768a.9.9,0,0,0,0,1.8A.9.9,0,0,0,320.953,124.768Z" transform="translate(-280.49 -93.598)"/><path class="p" d="M286.379,115.127a1.227,1.227,0,0,0-.333-.8,1.138,1.138,0,0,0-1.943.8c0,.049-.009.1-.014.148a1.152,1.152,0,1,0,2.3,0C286.388,115.225,286.384,115.176,286.379,115.127Z" transform="translate(-266.542 -89.421)"/><path class="p" d="M278.016,112.214a.723.723,0,0,0-.244-.437.715.715,0,0,0-.984,0,.723.723,0,0,0-.244.437.779.779,0,0,0,.736.967.788.788,0,0,0,.54-.224A.8.8,0,0,0,278.016,112.214Z" transform="translate(-263.615 -88.488)"/><path class="p" d="M264.069,87.232a.959.959,0,0,0-.1-.3.826.826,0,0,0-.179-.564.888.888,0,0,0-1.138-.227,1.206,1.206,0,0,0-.644,1.382,1.117,1.117,0,0,0,.729.745,1.186,1.186,0,0,0,.884-.107A.924.924,0,0,0,264.069,87.232Z" transform="translate(-257.972 -78.586)"/><path class="p" d="M318.6,88.651a1.034,1.034,0,0,0-.972-.257l-.141.027a.972.972,0,0,0,0,1.874l.141.027a1.017,1.017,0,0,0,1.265-.964A1.03,1.03,0,0,0,318.6,88.651Z" transform="translate(-279.209 -79.493)"/><path class="p" d="M321.949,92.619a.458.458,0,0,0,0,.916A.458.458,0,0,0,321.949,92.619Z" transform="translate(-281.043 -81.14)"/></g><g transform="translate(228.018 128.805)"><path class="ab" d="M324.118,218.712a10.277,10.277,0,0,1-6.6,4.976,14.188,14.188,0,0,1-7.792-.559c-.107-.031-.216-.063-.322-.1.035-.113.074-.224.112-.333a20.232,20.232,0,0,1,5.946-8.754,40.348,40.348,0,0,1,8.835-5.254C325.436,211.963,325.608,215.853,324.118,218.712Z" transform="translate(-309.407 -208.691)"/><path class="ac" d="M324.118,218.712a10.277,10.277,0,0,1-6.6,4.976,14.188,14.188,0,0,1-7.792-.559c-.107-.031-.216-.063-.322-.1,13.06-3.255,14.893-14.341,14.893-14.341C325.436,211.963,325.608,215.853,324.118,218.712Z" transform="translate(-309.407 -208.691)"/><path class="j" d="M322.309,217.187a17.3,17.3,0,0,1-5.811,6.206,18.3,18.3,0,0,1-6.769,2.913c-.107-.031-.216-.063-.322-.1.035-.113.074-.224.112-.333a20.732,20.732,0,0,0,6.8-2.922,19.267,19.267,0,0,0,3.24-2.8,29.925,29.925,0,0,0,2.388-3.183A.216.216,0,0,1,322.309,217.187Z" transform="translate(-309.407 -211.867)"/></g><g transform="translate(162.315 10.005)"><path class="ab" d="M202.336,24.454a10.279,10.279,0,0,0,5.07,6.525,14.191,14.191,0,0,0,7.668,1.495c.111,0,.225,0,.336-.01,0-.118-.013-.236-.021-.351a20.226,20.226,0,0,0-3.456-10,40.368,40.368,0,0,0-7.157-7.378C202.825,17.594,201.644,21.3,202.336,24.454Z" transform="translate(-202.136 -14.732)"/><path class="ac" d="M202.336,24.454a10.279,10.279,0,0,0,5.07,6.525,14.191,14.191,0,0,0,7.668,1.495c.111,0,.225,0,.336-.01-11.758-6.55-10.634-17.731-10.634-17.731C202.825,17.594,201.644,21.3,202.336,24.454Z" transform="translate(-202.136 -14.732)"/><path class="j" d="M207.314,23.812a17.3,17.3,0,0,0,3.99,7.507,18.3,18.3,0,0,0,5.774,4.578c.111,0,.225,0,.336-.01,0-.118-.013-.236-.021-.351a20.718,20.718,0,0,1-5.8-4.594,19.269,19.269,0,0,1-2.4-3.55,29.952,29.952,0,0,1-1.474-3.7A.216.216,0,0,0,207.314,23.812Z" transform="translate(-204.141 -18.157)"/></g><g transform="translate(208.911 82.566)"><path class="ab" d="M285.3,138.47a5.573,5.573,0,0,1-2.748,3.537,7.691,7.691,0,0,1-4.157.81c-.06,0-.122,0-.182-.006,0-.064.007-.127.012-.19A10.958,10.958,0,0,1,280.1,137.2a21.9,21.9,0,0,1,3.88-4A7.155,7.155,0,0,1,285.3,138.47Z" transform="translate(-278.212 -133.2)"/><path class="ac" d="M285.3,138.47a5.573,5.573,0,0,1-2.748,3.537,7.691,7.691,0,0,1-4.157.81c-.06,0-.122,0-.182-.006a10.4,10.4,0,0,0,5.764-9.611A7.155,7.155,0,0,1,285.3,138.47Z" transform="translate(-278.212 -133.2)"/><path class="j" d="M283.687,138.122a9.372,9.372,0,0,1-2.163,4.069,9.907,9.907,0,0,1-3.13,2.482c-.06,0-.122,0-.182-.006,0-.064.007-.127.012-.19a11.247,11.247,0,0,0,3.143-2.49,10.453,10.453,0,0,0,1.3-1.924,16.293,16.293,0,0,0,.8-2A.117.117,0,0,1,283.687,138.122Z" transform="translate(-278.212 -135.057)"/></g><g transform="translate(108.777 33.826)"><path class="ad" d="M149.7,100.827a31.646,31.646,0,0,1-3.457-5.6l-5.283-10.043c-4.133-7.858-8.3-15.787-11.15-24.264-.858-2.549-2.207-4.669-2.632-7.3C137.068,67.7,144.5,83.986,149.7,100.827Z" transform="translate(-119.553 -53.624)"/><path class="k" d="M146.378,113.353q-4.4-7.306-9.428-14.215a35.033,35.033,0,0,0-5.091-5.925c-2.084-1.822-4.532-3.168-6.765-4.8-3.949-2.889-7.177-6.633-10.367-10.343a18.981,18.981,0,0,1,11.444,4.316,47.392,47.392,0,0,1,8.564,9.335,44.327,44.327,0,0,1,3.845,5.871C139.2,98.777,146.195,110.334,146.378,113.353Z" transform="translate(-114.728 -63.096)"/><path class="m" d="M157.02,120.742s1.592.281,2.161-.445c0,0,6.3,11.29,5.546,14.066s-2.421,1.351-2.386-.342S159.03,123.647,157.02,120.742Z" transform="translate(-131.116 -79.46)"/></g><g transform="translate(186.257 22.104)"><path class="s" d="M246.566,43.372c.8.687,1.664,1.31,2.527,1.932l6.1,4.4a10.686,10.686,0,0,0,4.938,2.371c2.2.266,4.532-.209,6.641.318a.01.01,0,0,1,.008,0c.4-1.256-1.144-1.915-2.216-2.335a25.134,25.134,0,0,1-3.873-1.51c-1.79-1.1-2.724-3.022-3.807-4.764a25.83,25.83,0,0,0-3.116-4.052,10.739,10.739,0,0,0-2.813-2.585c-1.352-.674-2.625-.054-4.04,1.085a4.045,4.045,0,0,0-1.7,2.917A3.127,3.127,0,0,0,246.566,43.372Z" transform="translate(-242.77 -35.412)"/><path class="r" d="M246.566,44.235c.8.687,1.664,1.31,2.527,1.932l6.1,4.4a10.686,10.686,0,0,0,4.938,2.371c2.2.266,4.532-.209,6.641.318a8.886,8.886,0,0,0-4.439-1.283c-2.536-.012-3.249.394-6.934-2.678s-10.793-6.6-8.485-10.2a4.045,4.045,0,0,0-1.7,2.917A3.127,3.127,0,0,0,246.566,44.235Z" transform="translate(-242.77 -36.275)"/><path class="k" d="M247.015,37.218a1.1,1.1,0,0,0-1.009.126.762.762,0,0,0-.257.554,1.166,1.166,0,0,0,.138.523,3.633,3.633,0,0,0,.6.891.249.249,0,0,0,.153.1.426.426,0,0,0,.23-.074c.419-.235,1.452-.942,1.45-1.444C248.316,37.431,247.391,37.315,247.015,37.218Z" transform="translate(-242.978 -35.52)"/><path class="k" d="M241.438,34.489a7.388,7.388,0,0,1,3.818,2.54c.16.175-.213.463-.374.288a9.8,9.8,0,0,0-1.761-1.529c-.585-.393-1.283-.647-1.852-1.05C241.152,34.654,241.291,34.462,241.438,34.489Z" transform="translate(-241.225 -34.487)"/><path class="m" d="M263.512,56.682a18.545,18.545,0,0,0-2.123-1.344,28.37,28.37,0,0,1-2.347-1.85.312.312,0,0,0-.442.442,11.724,11.724,0,0,0,2.181,1.839,6.594,6.594,0,0,0,2.531,1.256C263.493,57.051,263.683,56.832,263.512,56.682Z" transform="translate(-247.924 -41.818)"/><path class="m" d="M269.123,59.688a6.446,6.446,0,0,0-.806-.026.194.194,0,0,0-.1.359,1.44,1.44,0,0,0,.985.241.3.3,0,0,0,.271-.206C269.555,59.824,269.313,59.7,269.123,59.688Z" transform="translate(-251.651 -44.241)"/></g><g transform="translate(137.499 37.235)"><path class="p" d="M182.652,82.56a9.4,9.4,0,0,1-4.61,4.171c-15.834,7.356-19.525-18.743-14.027-25.725a5.054,5.054,0,0,1,.973-.955C171.743,55.085,187.662,72.811,182.652,82.56Z" transform="translate(-161.621 -59.19)"/><path class="m" d="M183.133,82.56a10.025,10.025,0,0,1-3.851,2.971c-15.035,6.983-19.121-16.194-14.786-24.526a5.054,5.054,0,0,1,.973-.955C172.225,55.085,188.143,72.811,183.133,82.56Z" transform="translate(-162.102 -59.19)"/><path class="z" d="M183.441,87.483c-.52,3.26-4.6,5.468-7.684,4.7a6.7,6.7,0,0,1-4.455-3.74,5.446,5.446,0,0,1-.431-1.741c-.271-3.526,3.091-5.618,6.285-5.614a6.977,6.977,0,0,1,5.015,2.381A4.9,4.9,0,0,1,183.441,87.483Z" transform="translate(-165.2 -67.675)"/><path class="aa" d="M182.459,85.91c-.519,3.26-4.6,5.468-7.688,4.7a6.787,6.787,0,0,1-3.469-2.168,5.446,5.446,0,0,1-.431-1.741c-.271-3.526,3.091-5.618,6.285-5.614a6.977,6.977,0,0,1,5.015,2.381A4.531,4.531,0,0,1,182.459,85.91Z" transform="translate(-165.2 -67.675)"/><path class="i" d="M176.586,84.532a1.486,1.486,0,0,0-2.456-.649c-1.2,1.017-2.3,3.943-.537,4.975,1,.582,2.364-.213,2.827-1.115A4.971,4.971,0,0,0,176.586,84.532Z" transform="translate(-165.903 -68.606)"/></g><g transform="translate(135.043 109.238)"><path class="ad" d="M157.611,176.746c1.5,7.46,5.987,13.921,10.367,20.143,1.735,2.465,3.568,5.509,6.058,7.276.757-.906-2.58-5.492-3.189-6.542q-2.056-3.542-4.2-7.03Q162.309,183.554,157.611,176.746Z" transform="translate(-157.611 -176.746)"/><path class="k" d="M171.685,194.053c-1.23-4.479-1.911-9.144-3.805-13.386a66.492,66.492,0,0,1,11.511,25,8.793,8.793,0,0,1-3.571-2.544A26.019,26.019,0,0,1,171.685,194.053Z" transform="translate(-161.59 -178.265)"/><path class="k" d="M160.726,199.418a34.115,34.115,0,0,0,6.378,8.272c1.682,1.543,7.082,6.112,9.515,5.241-1.779-2.563-5.487-5.315-7.869-7.326Q164.878,202.336,160.726,199.418Z" transform="translate(-158.818 -185.531)"/><path class="ae" d="M192.014,222.075c.127,5.5-7.633,8.625-12,7.175a3.975,3.975,0,0,1-2.845-4.635,10.1,10.1,0,0,1,3.385-6.561,7.7,7.7,0,0,1,7.084-1.556l.03.009A6.254,6.254,0,0,1,192.014,222.075Z" transform="translate(-165.173 -192.032)"/><path class="af" d="M193.842,222.275c.127,5.5-7.633,8.625-12,7.175a3.462,3.462,0,0,1,.512-.222c2.081-.733,4.126-.935,6.013-2.221,2.213-1.508,3.794-4.287,3.07-6.864a12.7,12.7,0,0,0-1.942-3.436A6.254,6.254,0,0,1,193.842,222.275Z" transform="translate(-167.001 -192.231)"/><path class="ag" d="M179.572,228.694a1.515,1.515,0,0,0,.428.5,1.361,1.361,0,0,0,.95.179,2.525,2.525,0,0,0,1.961-1.649,3.23,3.23,0,0,0-.251-2.6c-.584-1.072-2.041-1.627-2.861-.508A4.1,4.1,0,0,0,179.572,228.694Z" transform="translate(-165.951 -195.057)"/><path class="ag" d="M186.355,221.128a1.021,1.021,0,0,0-.933-.43,1.564,1.564,0,0,0-.808.248.818.818,0,0,0-.312.918l0,.011a.974.974,0,0,0,.744.843,1.217,1.217,0,0,0,1.121-.229A1.061,1.061,0,0,0,186.355,221.128Z" transform="translate(-167.936 -193.777)"/><path class="ag" d="M186.53,224.592a.729.729,0,0,0-.1-.007l-.067.012a.615.615,0,0,0-.158.028c-.009,0-.015.007-.024.01h0c-.007,0-.013.007-.02.01a.607.607,0,0,0-.075.037.624.624,0,0,0-.305.41.648.648,0,0,0,.017.338l.006.021a.424.424,0,0,0,.023.055.659.659,0,0,0,.295.33.624.624,0,0,0,.239.067c.008,0,.015.007.024.009a.65.65,0,0,0,.783-.6A.689.689,0,0,0,186.53,224.592Z" transform="translate(-168.52 -195.284)"/><path class="af" d="M193.209,234.082c.135.544,1.1.471,1.562.622a1.677,1.677,0,0,1,1.12,1.551c0,.583-.3,1.227.028,1.709a1.462,1.462,0,0,0,1.487.368,1.184,1.184,0,0,1-1.081-.889,3.821,3.821,0,0,1,.2-1.519,2.534,2.534,0,0,0-.567-2.156c-.523-.567-2.591-1.182-2.761.076A.624.624,0,0,0,193.209,234.082Z" transform="translate(-171.399 -198.586)"/><path class="m" d="M197.188,227.257a4.007,4.007,0,0,0-.293.939,5.37,5.37,0,0,1-.621,1.284,6.586,6.586,0,0,1-1.844,1.754c-.157.11-.034.4.155.314a5.054,5.054,0,0,0,2.041-1.832,3.668,3.668,0,0,0,.818-2.441C197.409,227.148,197.247,227.164,197.188,227.257Z" transform="translate(-171.85 -196.291)"/><path class="m" d="M198.9,223.189a.2.2,0,0,0-.175-.087h-.048a.105.105,0,0,0-.088.058c-.124.217.084.442.154.652a2.869,2.869,0,0,1,.134.967c0,.244.362.216.375-.021A3.005,3.005,0,0,0,198.9,223.189Z" transform="translate(-173.475 -194.708)"/></g><path class="ah" d="M189.671,111.67c-.071.013-.14.027-.209.045a.487.487,0,0,0,0,.933c.069.019.138.032.209.046a.531.531,0,1,0,0-1.024Z" transform="translate(-34.776 -42.286)"/><path class="ah" d="M354.061,25.635a1.031,1.031,0,0,0,0,2.061A1.031,1.031,0,0,0,354.061,25.635Z" transform="translate(-98.306 -8.952)"/><path class="a" d="M126.156,227.984a6.164,6.164,0,0,1-3.895-2.44c-1.145-1.622-3.842-.07-2.685,1.569a9.305,9.305,0,0,0,5.753,3.868C127.282,231.382,128.117,228.386,126.156,227.984Z" transform="translate(-7.72 -86.151)"/><g transform="translate(113.969 5.419)"><path class="ah" d="M237.91,111.14a1.655,1.655,0,1,0,1.655,1.655A1.674,1.674,0,0,0,237.91,111.14Z" transform="translate(-167.011 -47.505)"/><path class="ah" d="M246.1,100.111l-.07.013a.872.872,0,0,0,0,1.68l.07.013a.885.885,0,1,0,0-1.706Z" transform="translate(-170.551 -43.224)"/><path class="ah" d="M167.626,109.217a1.427,1.427,0,0,0,0,2.852A1.427,1.427,0,0,0,167.626,109.217Z" transform="translate(-139.884 -46.76)"/><path class="ah" d="M134.935,136.823a1.251,1.251,0,0,0-.363-.876,1.292,1.292,0,0,0-.534-.295,1.3,1.3,0,1,0-.012,2.348,1.151,1.151,0,0,0,.546-.3A1.259,1.259,0,0,0,134.935,136.823Z" transform="translate(-126.682 -56.949)"/><path class="ah" d="M129.6,163.769a2.294,2.294,0,0,0-3.246,0,2.294,2.294,0,0,0,0,3.246,2.294,2.294,0,0,0,3.246,0,2.294,2.294,0,0,0,0-3.246Z" transform="translate(-124.163 -67.638)"/><path class="ah" d="M186.556,151a1.3,1.3,0,0,0,0,2.6A1.3,1.3,0,0,0,186.556,151Z" transform="translate(-147.266 -62.949)"/><path class="ah" d="M138.325,196.116a1.771,1.771,0,1,0,1.771,1.771A1.791,1.791,0,0,0,138.325,196.116Z" transform="translate(-128.377 -80.433)"/><path class="ah" d="M329.974,152.132a1.42,1.42,0,0,0-1.03-.427,3.237,3.237,0,0,0-.532.067,1.886,1.886,0,0,0-.676.405,1.4,1.4,0,0,0,0,1.971,1.617,1.617,0,0,0,.676.405,4.534,4.534,0,0,0,.532.066,1.456,1.456,0,0,0,1.03-.427,1.457,1.457,0,0,0,0-2.061Z" transform="translate(-202.303 -63.222)"/><path class="ah" d="M342.628,142.091a1.427,1.427,0,0,0,0,2.852A1.427,1.427,0,0,0,342.628,142.091Z" transform="translate(-207.697 -59.498)"/><path class="ah" d="M344.083,64.082a1.461,1.461,0,0,0-.742-1.427,1.674,1.674,0,0,0-1.848.123,1.759,1.759,0,0,0-.665,1.381,1.8,1.8,0,0,0,.5,1.26,1.613,1.613,0,0,0,1.139.478,2.026,2.026,0,0,0,.865-.232,1.571,1.571,0,0,0,.715-.929A1.643,1.643,0,0,0,344.083,64.082Z" transform="translate(-207.533 -28.632)"/><path class="ah" d="M352.342,98.977a1.555,1.555,0,0,0,0,3.109A1.555,1.555,0,0,0,352.342,98.977Z" transform="translate(-211.413 -42.792)"/><path class="ah" d="M124.706,103.69a1.555,1.555,0,0,0,0,3.109A1.555,1.555,0,0,0,124.706,103.69Z" transform="translate(-123.205 -44.618)"/><path class="ah" d="M134.858,18.848a1.555,1.555,0,0,0,0,3.109A1.555,1.555,0,0,0,134.858,18.848Z" transform="translate(-127.139 -11.742)"/><path class="ah" d="M283.792,7.246a1.555,1.555,0,0,0,0,3.109A1.555,1.555,0,0,0,283.792,7.246Z" transform="translate(-184.85 -7.246)"/><path class="ah" d="M274.365,29.725a1.555,1.555,0,0,0,0,3.109A1.555,1.555,0,0,0,274.365,29.725Z" transform="translate(-181.197 -15.957)"/></g><g transform="translate(244.959 21.368)"><path class="k" d="M372.321,39.5c.2-1.1,1.077-3.722,2.115-4.137-.284,2.969-1.178,7.279-1.6,10.231q1.068-3.724,2.383-7.371a12.365,12.365,0,0,1,2.752-4.934,44.111,44.111,0,0,1-3.578,12.693,53.09,53.09,0,0,1,4.883-6.017c.32.1-4.989,9.663-6.895,9.323C369.689,48.8,372.027,41.1,372.321,39.5Z" transform="translate(-350.253 -33.284)"/><path class="n" d="M361.907,62.943c-.5,2.264-2.776,3.729-4.717,5C351.554,71.62,342.406,71.9,337.065,76a9.172,9.172,0,0,1,3.694-5.309c1.744-1.348,3.728-2.366,5.485-3.7a21.042,21.042,0,0,0,5.963-6.725c1.95-3.653,6.265-4.608,8.506-2.677C361.871,58.588,362.477,60.361,361.907,62.943Z" transform="translate(-337.065 -42.322)"/><path class="ai" d="M361.907,63.561c-.5,2.264-2.776,3.729-4.717,5-5.637,3.681-14.785,3.959-20.126,8.056,0,0,3.3-4.3,10.531-6.7,6.653-2.215,14.585-7.792,13.117-11.707C361.871,59.205,362.477,60.978,361.907,63.561Z" transform="translate(-337.065 -42.94)"/><path class="aj" d="M353.63,71.909c-.259-.115-.483.269-.222.385a1.951,1.951,0,0,1,1.166,1.513c.045.282.474.164.429-.116A2.354,2.354,0,0,0,353.63,71.909Z" transform="translate(-343.353 -48.243)"/><path class="aj" d="M355.529,69.306c-.26-.113-.484.271-.222.385a3.236,3.236,0,0,1,1.676,1.63c.121.259.5.032.383-.225A3.6,3.6,0,0,0,355.529,69.306Z" transform="translate(-344.088 -47.235)"/><path class="aj" d="M360.4,67.982a2.652,2.652,0,0,0-1.642-1.167c-.278-.064-.4.364-.116.429a2.2,2.2,0,0,1,1.375.964C360.167,68.448,360.551,68.224,360.4,67.982Z" transform="translate(-345.363 -46.275)"/><path class="aj" d="M362.735,64.641a1.849,1.849,0,0,0-1.52-.946c-.286-.017-.287.428,0,.445a1.394,1.394,0,0,1,1.14.727C362.491,65.116,362.874,64.892,362.735,64.641Z" transform="translate(-346.34 -45.068)"/><path class="aj" d="M350.528,74.588c-.171-.225-.556,0-.383.225a1.841,1.841,0,0,1,.392,1.077c.009.285.453.289.444,0A2.253,2.253,0,0,0,350.528,74.588Z" transform="translate(-342.116 -49.253)"/></g></g></svg>