<svg xmlns="http://www.w3.org/2000/svg" width="206.56" height="206.56" viewBox="0 0 206.56 206.56"><defs><style>.a{fill:#067655;}</style></defs><path class="a" d="M103.28,0A103.28,103.28,0,1,0,206.56,103.28,103.4,103.4,0,0,0,103.28,0Zm0,195.395a92.1,92.1,0,1,1,92.114-92.114A91.821,91.821,0,0,1,103.28,195.395Z"/><circle class="a" cx="11.166" cy="11.166" r="11.166" transform="translate(58.386 69.086)"/><circle class="a" cx="11.166" cy="11.166" r="11.166" transform="translate(127.473 69.086)"/><path class="a" d="M124.438,214.647a64.823,64.823,0,0,0,54.156-29.388l-9.378-6.06a53.044,53.044,0,0,1-89.16,0l-9.378,6.06a64.836,64.836,0,0,0,46.53,28.974A63.094,63.094,0,0,0,124.438,214.647Z" transform="translate(-21.355 -54.145)"/></svg>